<svg width="72" height="72" viewBox="0 0 72 72" fill="none" xmlns="http://www.w3.org/2000/svg">
<path d="M0 16C0 7.16344 7.16344 0 16 0H56C64.8366 0 72 7.16344 72 16V56C72 64.8366 64.8366 72 56 72H16C7.16344 72 0 64.8366 0 56V16Z" fill="#E2F1FF"/>
<g clip-path="url(#clip0_289_24680)">
<path d="M26.6665 34.6667V28C26.6665 26.9391 27.0879 25.9217 27.8381 25.1716C28.5882 24.4214 29.6056 24 30.6665 24H41.3332C42.394 24 43.4115 24.4214 44.1616 25.1716C44.9117 25.9217 45.3332 26.9391 45.3332 28V34.6667" stroke="#5886D8" stroke-width="2" stroke-linecap="round" stroke-linejoin="round"/>
<path d="M28 45.3335V48.0002" stroke="#5886D8" stroke-width="2" stroke-linecap="round" stroke-linejoin="round"/>
<path d="M44 45.3335V48.0002" stroke="#5886D8" stroke-width="2" stroke-linecap="round" stroke-linejoin="round"/>
<path d="M26.6667 34.6665C27.3739 34.6665 28.0522 34.9475 28.5523 35.4476C29.0524 35.9477 29.3333 36.6259 29.3333 37.3332V39.9998H42.6667V37.3332C42.6667 36.6259 42.9476 35.9477 43.4477 35.4476C43.9478 34.9475 44.6261 34.6665 45.3333 34.6665C46.0406 34.6665 46.7189 34.9475 47.219 35.4476C47.719 35.9477 48 36.6259 48 37.3332V42.6665C48 43.3737 47.719 44.052 47.219 44.5521C46.7189 45.0522 46.0406 45.3332 45.3333 45.3332H26.6667C25.9594 45.3332 25.2811 45.0522 24.781 44.5521C24.281 44.052 24 43.3737 24 42.6665V37.3332C24 36.6259 24.281 35.9477 24.781 35.4476C25.2811 34.9475 25.9594 34.6665 26.6667 34.6665Z" stroke="#5886D8" stroke-width="2" stroke-linecap="round" stroke-linejoin="round"/>
</g>
<defs>
<clipPath id="clip0_289_24680">
<rect width="32" height="32" fill="white" transform="translate(20 20)"/>
</clipPath>
</defs>
</svg>
