<svg width="32" height="32" viewBox="0 0 32 32" fill="none" xmlns="http://www.w3.org/2000/svg">
<g clip-path="url(#clip0_877_3810)">
<path d="M12 14.6667C12 15.7276 12.4214 16.745 13.1716 17.4951C13.9217 18.2453 14.9391 18.6667 16 18.6667C17.0609 18.6667 18.0783 18.2453 18.8284 17.4951C19.5786 16.745 20 15.7276 20 14.6667C20 13.6058 19.5786 12.5884 18.8284 11.8383C18.0783 11.0881 17.0609 10.6667 16 10.6667C14.9391 10.6667 13.9217 11.0881 13.1716 11.8383C12.4214 12.5884 12 13.6058 12 14.6667Z" stroke="white" stroke-width="2" stroke-linecap="round" stroke-linejoin="round"/>
<path d="M23.5433 22.2096L17.886 27.8669C17.386 28.3665 16.7081 28.647 16.0013 28.647C15.2945 28.647 14.6167 28.3665 14.1167 27.8669L8.45799 22.2096C6.96628 20.7178 5.95044 18.8172 5.53891 16.7481C5.12737 14.679 5.33864 12.5343 6.14599 10.5853C6.95334 8.63621 8.32052 6.97033 10.0746 5.79829C11.8287 4.62625 13.891 4.00067 16.0007 4.00067C18.1103 4.00067 20.1726 4.62625 21.9267 5.79829C23.6808 6.97033 25.048 8.63621 25.8553 10.5853C26.6627 12.5343 26.8739 14.679 26.4624 16.7481C26.0509 18.8172 25.035 20.7178 23.5433 22.2096Z" stroke="white" stroke-width="2" stroke-linecap="round"/>
</g>
<defs>
<clipPath id="clip0_877_3810">
<rect width="32" height="32" fill="white"/>
</clipPath>
</defs>
</svg>
