<svg xmlns="http://www.w3.org/2000/svg" width="32" height="32" viewBox="0 0 32 32"><path transform="translate(17.333 4)" d="M0 0v4c0 .13.03.26.08.38.05.12.12.23.21.33.1.09.21.16.33.21.12.05.25.08.38.08h4" fill="none" stroke="#00A2F9" stroke-width="2" stroke-linejoin="round" stroke-linecap="round"/><path transform="translate(5.333 4)" d="M7 18H2c-.53 0-1.04-.21-1.41-.59C.21 17.04 0 16.53 0 16V2C0 1.47.21.96.59.59.96.21 1.47 0 2 0h7l5 5v3.5" fill="none" stroke="#00A2F9" stroke-width="2" stroke-linejoin="round" stroke-linecap="square"/><path transform="translate(10.667 12)" d="M0 0h1" fill="none" stroke="#00A2F9" stroke-width="2" stroke-linejoin="round" stroke-linecap="square"/><path transform="translate(10.667 17.325)" d="M0 0h3" fill="none" stroke="#00A2F9" stroke-width="2" stroke-linejoin="round" stroke-linecap="square"/><path transform="translate(10.667 22.663)" d="M0 0h2" fill="none" stroke="#00A2F9" stroke-width="2" stroke-linejoin="round" stroke-linecap="square"/><path transform="translate(18.667 19.325)" d="M7 1.5c0 4-2.5 6-3.5 6S0 5.5 0 1.5c1 0 2.5-.5 3.5-1.5 1 1 2.5 1.5 3.5 1.5z" fill="#0385CB" stroke="#0385CB" stroke-width="2" stroke-linecap="round"/></svg>
